<?xml version="1.0" standalone="no"?>
<!DOCTYPE svg PUBLIC "-//W3C//DTD SVG 20010904//EN"
 "http://www.w3.org/TR/2001/REC-SVG-20010904/DTD/svg10.dtd">
<svg version="1.0" xmlns="http://www.w3.org/2000/svg"
 width="32" height="31" viewBox="0 0 32.000000 32.000000"
 preserveAspectRatio="xMidYMid meet">
<metadata>
Created by potrace 1.16, written by Peter Selinger 2001-2019
</metadata>
<g transform="translate(0.000000,32.000000) scale(0.100000,-0.100000)"
fill="#fa0202" stroke="none">
<path d="M67 290 c-6 -16 -15 -30 -19 -30 -4 0 -8 -23 -8 -51 0 -31 4 -48 10
-44 5 3 10 15 10 26 0 17 8 19 95 19 106 0 100 4 110 -78 6 -51 5 -52 -20 -52
-14 0 -25 4 -25 9 0 5 7 8 16 7 9 0 19 5 21 12 3 7 -4 12 -15 12 -13 0 -22 9
-27 27 -10 40 -24 53 -56 53 -30 0 -59 -31 -59 -62 0 -12 -8 -18 -21 -18 -12
0 -19 -5 -16 -12 2 -7 12 -12 21 -12 9 1 16 -2 16 -7 0 -5 -13 -9 -28 -9 -26
0 -28 2 -24 35 2 19 0 35 -6 35 -17 0 -23 -102 -7 -127 15 -22 22 -23 125 -23
104 0 110 1 125 24 13 20 14 34 5 87 -5 35 -10 83 -10 107 0 23 -4 42 -8 42
-4 0 -13 14 -19 30 -11 30 -11 30 -93 30 -82 0 -82 0 -93 -30z"/>
</g>
</svg>
