<?xml version="1.0" standalone="no"?>
<!DOCTYPE svg PUBLIC "-//W3C//DTD SVG 20010904//EN"
 "http://www.w3.org/TR/2001/REC-SVG-20010904/DTD/svg10.dtd">
<svg version="1.0" xmlns="http://www.w3.org/2000/svg"
 width="32" height="31" viewBox="0 0 64.000000 64.000000"
 preserveAspectRatio="xMidYMid meet">
<metadata>
Created by potrace 1.16, written by Peter Selinger 2001-2019
</metadata>
<g transform="translate(0.000000,64.000000) scale(0.100000,-0.100000)"
fill="#fa0202" stroke="none">
<path d="M230 550 c0 -28 -2 -30 -40 -30 -37 0 -40 -2 -41 -27 -2 -24 -2 -25
-6 -5 -4 18 -11 22 -44 22 -32 0 -39 -3 -39 -20 0 -13 -7 -20 -20 -20 -19 0
-20 -7 -20 -175 0 -110 -4 -175 -10 -175 -5 0 -10 -13 -10 -30 l0 -30 320 0
320 0 0 30 c0 17 -4 30 -10 30 -6 0 -10 65 -10 175 0 168 -1 175 -20 175 -13
0 -20 7 -20 20 0 17 -7 20 -39 20 -33 0 -40 -4 -44 -22 -4 -20 -4 -19 -6 5 -1
25 -4 27 -41 27 -38 0 -40 2 -40 30 l0 30 -90 0 -90 0 0 -30z m240 -240 l0
-190 -30 0 c-30 0 -30 1 -30 55 0 42 3 55 15 55 8 0 15 5 15 10 0 6 -47 10
-122 10 -105 -1 -120 -3 -105 -14 12 -10 17 -27 17 -65 0 -48 -2 -51 -25 -51
l-25 0 0 190 0 190 145 0 145 0 0 -190z"/>
<path d="M190 440 l0 -50 136 0 135 0 -3 48 -3 47 -132 3 -133 3 0 -51z"/>
<path d="M190 330 l0 -50 136 0 135 0 -3 48 -3 47 -132 3 -133 3 0 -51z"/>
</g>
</svg>
