<?xml version="1.0" standalone="no"?>
<!DOCTYPE svg PUBLIC "-//W3C//DTD SVG 20010904//EN"
 "http://www.w3.org/TR/2001/REC-SVG-20010904/DTD/svg10.dtd">
<svg version="1.0" xmlns="http://www.w3.org/2000/svg"
 width="32" height="31" viewBox="0 0 64.000000 64.000000"
 preserveAspectRatio="xMidYMid meet">
<metadata>
Created by potrace 1.16, written by Peter Selinger 2001-2019
</metadata>
<g transform="translate(0.000000,64.000000) scale(0.100000,-0.100000)"
fill="#fa0202" stroke="none">
<path d="M102 628 c-20 -20 -15 -76 7 -88 28 -14 52 -12 73 7 17 15 18 15 18
-10 0 -22 -5 -26 -32 -29 -30 -3 -33 -6 -36 -40 -3 -33 -6 -38 -29 -38 -25 0
-25 1 -10 18 35 38 10 92 -42 92 -15 0 -32 -5 -39 -12 -17 -17 -15 -73 3 -88
8 -7 15 -23 15 -36 0 -22 4 -24 50 -24 43 0 50 -3 50 -20 0 -18 -7 -20 -66
-20 -62 0 -65 -1 -62 -22 3 -21 9 -23 66 -26 46 -2 62 -7 62 -17 0 -11 -13
-15 -50 -15 -46 0 -50 -2 -50 -24 0 -13 -7 -29 -15 -36 -18 -15 -20 -71 -3
-88 7 -7 24 -12 39 -12 52 0 77 54 42 92 -15 17 -15 18 4 18 26 0 113 -87 113
-113 0 -19 -1 -19 -18 -4 -38 35 -92 10 -92 -42 0 -15 5 -32 12 -39 17 -17 73
-15 88 3 7 8 23 15 36 15 22 0 24 4 24 50 0 43 3 50 20 50 18 0 20 -7 20 -66
0 -62 1 -65 23 -62 20 3 22 9 25 65 2 47 7 63 17 63 11 0 15 -13 15 -50 0 -46
2 -50 24 -50 13 0 29 -7 36 -15 15 -18 71 -20 88 -3 17 17 15 64 -4 82 -20 20
-58 20 -78 0 -15 -14 -16 -13 -16 10 0 21 5 25 38 28 35 3 37 5 40 41 3 32 7
37 28 37 23 0 24 -1 10 -16 -20 -20 -20 -58 0 -78 18 -19 65 -21 82 -4 17 17
15 73 -3 88 -8 7 -15 23 -15 36 0 22 -4 24 -50 24 -43 0 -50 3 -50 20 0 18 7
20 66 20 62 0 65 1 62 23 -3 20 -9 22 -65 25 -47 2 -63 7 -63 17 0 11 13 15
50 15 46 0 50 2 50 24 0 13 7 29 15 36 18 15 20 71 3 88 -7 7 -24 12 -39 12
-52 0 -77 -54 -42 -92 15 -17 15 -18 -10 -18 -16 0 -27 6 -27 13 0 21 -54 67
-78 67 -17 0 -22 6 -22 26 0 24 1 24 22 10 30 -21 61 -20 81 2 20 22 22 63 5
80 -17 17 -73 15 -88 -3 -7 -8 -23 -15 -36 -15 -22 0 -24 -4 -24 -50 0 -43 -3
-50 -20 -50 -18 0 -20 7 -20 65 0 63 -1 65 -25 65 -24 0 -25 -2 -25 -65 0 -50
-3 -65 -14 -65 -11 0 -16 14 -18 48 -3 42 -6 47 -28 50 -14 2 -29 10 -33 18
-10 17 -68 19 -85 2z m340 -175 c16 -14 18 -33 18 -150 l0 -133 -117 0 c-106
0 -119 2 -140 22 -22 20 -23 29 -23 150 l0 128 122 0 c99 0 125 -3 140 -17z"/>
<path d="M210 337 c0 -85 2 -95 24 -116 21 -20 32 -22 107 -19 l84 3 3 94 c4
127 0 131 -125 131 l-93 0 0 -93z m168 -20 l3 -68 -58 3 -58 3 -3 68 -3 68 58
-3 58 -3 3 -68z"/>
</g>
</svg>
