<?xml version="1.0" standalone="no"?>
<!DOCTYPE svg PUBLIC "-//W3C//DTD SVG 20010904//EN"
 "http://www.w3.org/TR/2001/REC-SVG-20010904/DTD/svg10.dtd">
<svg version="1.0" xmlns="http://www.w3.org/2000/svg"
 width="32" height="31" viewBox="0 0 64.000000 64.000000"
 preserveAspectRatio="xMidYMid meet">
<metadata>
Created by potrace 1.16, written by Peter Selinger 2001-2019
</metadata>
<g transform="translate(0.000000,64.000000) scale(0.100000,-0.100000)"
fill="#fa0202" stroke="none">
<path d="M375 618 c-2 -7 -6 -29 -7 -48 l-3 -35 -24 43 c-24 41 -51 56 -51 27
0 -8 8 -37 19 -64 l18 -49 -49 -5 c-53 -7 -150 -53 -146 -71 1 -6 -11 -33 -26
-60 -23 -38 -30 -64 -34 -124 -4 -67 -3 -75 11 -69 13 5 22 -5 38 -42 25 -58
86 -122 98 -103 6 10 14 10 35 2 58 -22 164 -5 126 20 -8 5 -20 10 -26 10 -21
0 -73 69 -79 104 -9 44 8 96 41 127 l26 24 19 -24 c13 -16 18 -33 14 -48 -4
-19 0 -25 20 -33 32 -12 46 -12 65 0 12 8 12 11 -2 27 -9 10 -20 36 -24 57 -6
35 -5 38 10 33 10 -4 20 -7 22 -7 2 0 4 -7 4 -15 0 -8 5 -15 11 -15 7 0 20 -9
30 -21 15 -17 21 -19 39 -9 16 9 20 19 18 43 -2 18 -7 32 -13 32 -24 1 -55 27
-55 47 0 11 -16 35 -35 52 -31 29 -36 41 -48 116 -12 77 -30 111 -42 78z m-10
-140 c-2 -8 21 -29 54 -49 45 -28 59 -43 64 -67 4 -19 17 -37 37 -48 16 -10
30 -24 30 -31 0 -17 -30 -5 -55 22 -19 21 -82 52 -89 44 -7 -7 16 -114 27
-128 9 -10 7 -13 -8 -10 -12 3 -22 16 -26 37 -4 19 -21 48 -38 66 -18 18 -35
45 -39 59 -7 25 -30 35 -24 10 1 -6 -7 -14 -18 -18 -29 -9 -67 -64 -78 -113
-19 -81 20 -170 90 -206 l33 -17 -38 6 c-67 11 -84 24 -96 71 -6 23 -11 53
-11 66 -1 21 -1 22 -11 5 -8 -13 -8 -31 -1 -60 14 -53 9 -56 -16 -15 -51 82
-44 145 21 200 18 15 27 28 20 28 -27 0 -47 -16 -74 -58 -25 -40 -29 -42 -29
-21 0 32 42 119 69 144 16 14 37 19 77 19 30 0 54 3 54 7 0 11 -57 21 -82 15
-13 -3 -5 3 17 14 22 11 60 20 84 20 46 0 47 1 25 67 -3 10 3 3 15 -14 11 -18
19 -38 16 -45z"/>
</g>
</svg>
