<?xml version="1.0" standalone="no"?>
<!DOCTYPE svg PUBLIC "-//W3C//DTD SVG 20010904//EN"
 "http://www.w3.org/TR/2001/REC-SVG-20010904/DTD/svg10.dtd">
<svg version="1.0" xmlns="http://www.w3.org/2000/svg"
 width="32" height="31" viewBox="0 0 64.000000 64.000000"
 preserveAspectRatio="xMidYMid meet">
<metadata>
Created by potrace 1.16, written by Peter Selinger 2001-2019
</metadata>
<g transform="translate(0.000000,64.000000) scale(0.100000,-0.100000)"
fill="#fa0202" stroke="none">
<path d="M284 506 c-32 -14 -44 -33 -44 -67 0 -18 -1 -18 -20 1 -26 26 -81 26
-103 2 -10 -10 -17 -34 -17 -54 0 -47 27 -70 77 -66 31 2 41 9 54 34 15 31 15
31 38 13 30 -24 72 -24 102 0 23 18 23 18 38 -13 13 -25 23 -32 54 -34 51 -4
77 19 77 68 0 23 -7 43 -18 53 -25 23 -78 21 -102 -3 l-20 -20 0 25 c0 24 -31
65 -49 65 -5 0 -15 2 -23 5 -7 2 -27 -2 -44 -9z"/>
<path d="M250 323 c-19 -8 -51 -15 -71 -14 -87 5 -149 -54 -149 -142 0 -63 23
-59 30 5 3 25 12 53 20 63 18 22 64 45 90 45 19 0 19 -2 6 -23 -9 -12 -18 -48
-22 -80 -6 -47 -4 -57 8 -57 11 0 17 15 22 48 8 61 35 105 79 125 44 21 70 21
114 0 44 -20 71 -64 79 -125 5 -33 11 -48 22 -48 12 0 14 10 8 57 -4 32 -13
68 -22 80 -13 21 -13 23 6 23 26 0 72 -23 90 -45 8 -10 17 -38 20 -63 7 -64
30 -68 30 -5 0 88 -62 147 -149 142 -20 -1 -53 6 -73 15 -47 20 -93 20 -138
-1z"/>
</g>
</svg>
