<?xml version="1.0" standalone="no"?>
<!DOCTYPE svg PUBLIC "-//W3C//DTD SVG 20010904//EN"
 "http://www.w3.org/TR/2001/REC-SVG-20010904/DTD/svg10.dtd">
<svg version="1.0" xmlns="http://www.w3.org/2000/svg"
 width="32" height="31" viewBox="0 0 64.000000 64.000000"
 preserveAspectRatio="xMidYMid meet">
<metadata>
Created by potrace 1.16, written by Peter Selinger 2001-2019
</metadata>
<g transform="translate(0.000000,64.000000) scale(0.100000,-0.100000)"
fill="#fa0202" stroke="none">
<path d="M100 624 c0 -14 -3 -15 -12 -6 -18 18 -37 15 -64 -10 -30 -29 -30
-47 0 -75 27 -26 46 -29 64 -11 9 9 12 8 12 -5 0 -9 7 -17 15 -17 9 0 15 -9
15 -24 0 -13 7 -29 15 -36 14 -12 14 -15 0 -30 -13 -14 -16 -38 -15 -106 2
-153 1 -164 -15 -164 -8 0 -15 -8 -15 -17 0 -13 -3 -14 -12 -5 -18 18 -37 15
-64 -10 -30 -29 -30 -47 0 -76 27 -25 46 -28 64 -10 9 9 12 8 12 -5 0 -15 20
-17 220 -17 200 0 220 2 220 17 0 13 3 14 12 5 18 -18 41 -14 66 12 28 30 28
45 -2 73 -27 26 -46 29 -64 11 -9 -9 -12 -8 -12 5 0 9 -7 17 -15 17 -12 0 -15
15 -16 73 -1 163 -4 200 -16 204 -9 3 -13 -11 -13 -49 0 -30 -5 -59 -12 -66
-9 -9 -9 -15 0 -24 7 -7 12 -39 12 -75 l0 -63 -125 0 c-104 0 -125 -2 -125
-15 0 -13 21 -15 125 -15 l125 0 0 -40 0 -40 -160 0 -160 0 0 40 c0 36 2 40
26 40 31 0 28 23 -4 28 -25 4 -30 40 -10 60 10 10 10 17 0 32 -20 33 -15 138
8 168 l20 25 -20 22 c-11 12 -20 29 -20 38 0 26 91 24 115 -3 23 -26 67 -26
90 0 13 15 31 20 67 20 47 0 48 -1 48 -30 0 -20 5 -30 15 -30 10 0 15 10 15
30 0 20 5 30 15 30 8 0 15 8 15 17 0 13 3 14 12 5 7 -7 19 -12 27 -12 19 0 61
42 61 60 0 18 -42 60 -61 60 -8 0 -20 -5 -27 -12 -9 -9 -12 -8 -12 5 0 16 -14
17 -167 15 -122 -2 -167 -6 -171 -15 -2 -9 8 -13 31 -13 41 0 49 -13 29 -52
-12 -24 -19 -28 -58 -28 l-44 0 0 40 c0 30 4 40 16 40 35 0 4 25 -34 28 -35 3
-42 0 -42 -14z"/>
</g>
</svg>
