<?xml version="1.0" standalone="no"?>
<!DOCTYPE svg PUBLIC "-//W3C//DTD SVG 20010904//EN"
 "http://www.w3.org/TR/2001/REC-SVG-20010904/DTD/svg10.dtd">
<svg version="1.0" xmlns="http://www.w3.org/2000/svg"
 width="32" height="31" viewBox="0 0 64.000000 64.000000"
 preserveAspectRatio="xMidYMid meet">
<metadata>
Created by potrace 1.16, written by Peter Selinger 2001-2019
</metadata>
<g transform="translate(0.000000,64.000000) scale(0.100000,-0.100000)"
fill="#fa0202" stroke="none">
<path d="M411 545 c-37 -32 -42 -59 -19 -107 17 -35 17 -37 -3 -62 -20 -25
-56 -39 -132 -51 -26 -4 -53 -20 -82 -46 -59 -54 -75 -52 -75 10 0 27 6 53 13
58 6 6 45 18 85 28 58 14 78 23 94 46 12 16 30 29 39 29 10 0 21 5 24 10 4 7
-39 10 -132 8 l-138 -3 0 -195 0 -195 184 -3 c127 -2 188 1 197 9 11 9 14 45
14 154 l0 143 30 12 c38 16 50 37 50 88 0 33 -6 45 -31 66 -39 33 -79 33 -118
1z m103 -16 c50 -39 23 -129 -38 -129 -38 0 -56 10 -71 41 -18 34 -8 69 27 93
30 21 50 20 82 -5z m-86 -176 l-33 -34 35 -29 c41 -34 35 -48 -11 -25 -47 25
-99 22 -122 -6 -15 -19 -18 -36 -15 -96 3 -64 1 -73 -15 -73 -26 0 -42 42 -29
79 9 25 8 34 -4 46 -22 22 -48 19 -82 -10 -17 -14 -35 -25 -41 -25 -6 0 -11
11 -11 25 0 18 5 25 19 25 11 0 40 18 65 39 35 30 57 41 93 46 63 8 108 29
128 59 11 16 22 22 36 19 19 -5 18 -8 -13 -40z"/>
</g>
</svg>
