<?xml version="1.0" standalone="no"?>
<!DOCTYPE svg PUBLIC "-//W3C//DTD SVG 20010904//EN"
 "http://www.w3.org/TR/2001/REC-SVG-20010904/DTD/svg10.dtd">
<svg version="1.0" xmlns="http://www.w3.org/2000/svg"
 width="34" height="31" viewBox="0 0 64.000000 64.000000"
 preserveAspectRatio="xMidYMid meet">
<metadata>
Created by potrace 1.16, written by Peter Selinger 2001-2019
</metadata>
<g transform="translate(0.000000,64.000000) scale(0.100000,-0.100000)"
fill="#fa0202" stroke="none">
<path d="M0 320 l0 -320 320 0 320 0 0 80 c0 73 -2 80 -20 80 -13 0 -20 7 -20
19 0 10 -20 41 -45 69 l-45 50 0 116 c0 164 -28 226 -101 226 -29 0 -43 -6
-62 -30 -14 -16 -28 -43 -32 -60 -6 -30 -7 -30 -71 -30 l-64 0 0 60 0 60 -90
0 -90 0 0 -320z m450 240 c17 -34 20 -58 20 -180 l0 -140 -60 0 -60 0 0 148
c0 129 3 151 20 180 27 44 54 42 80 -8z m-140 -170 l0 -90 -40 -43 c-21 -24
-44 -55 -49 -70 -6 -15 -17 -27 -26 -27 -13 0 -15 23 -15 160 l0 160 65 0 65
0 0 -90z m290 -310 l0 -40 -210 0 -210 0 0 40 0 40 210 0 210 0 0 -40z"/>
</g>
</svg>
