<?xml version="1.0" encoding="iso-8859-1"?>
<!-- Generator: Adobe Illustrator 19.1.0, SVG Export Plug-In . SVG Version: 6.00 Build 0)  -->
<svg version="1.1" id="Capa_1" xmlns="http://www.w3.org/2000/svg" fill="#ffffff" xmlns:xlink="http://www.w3.org/1999/xlink" x="0px" y="0px"
	 viewBox="0 0 398 398" style="enable-background:new 0 0 398 398;" xml:space="preserve">
<g>
	<g>
	</g>
	<g>
	</g>
	<g>
	</g>
	<g>
	</g>
	<g>
	</g>
	<g>
	</g>
	<g>
	</g>
	<g>
	</g>
	<g>
	</g>
	<g>
	</g>
	<g>
	</g>
	<g>
	</g>
	<g>
	</g>
	<g>
	</g>
	<g>
	</g>
</g>
<g>
	<path style="fill:#ffffff;" d="M346.154,0H51.965C23.414,0,0,23.429,0,51.98v294.19C0,374.738,23.414,398,51.965,398h294.189
		C374.723,398,398,374.738,398,346.169V51.98C398,23.411,374.723,0,346.154,0z M377,346.169C377,363.056,363.041,377,346.154,377
		H51.965C35.078,377,21,363.056,21,346.169V51.98C21,35.093,35.096,21,51.965,21h294.189C363.041,21,377,35.093,377,51.98V346.169z"
		/>
	<path style="fill:#ffffff;" d="M353.124,187H210V40.898c0-5.858-5.142-10.587-11-10.587c-5.841,0-11,4.747-11,10.587V187H42.172
		c-5.858,0-10.587,4.659-10.587,10.5c0,5.841,4.729,10.5,10.587,10.5H188v149.057c0,5.841,5.142,10.587,11,10.587
		s11-4.747,11-10.587V208h143.124c5.858,0,10.605-4.642,10.587-10.5C363.712,191.642,358.983,187,353.124,187z"/>
	<path style="fill:#ffffff;" d="M68.04,123H102v33.495c0,5.841,4.659,10.587,10.5,10.587c5.841,0,10.5-4.729,10.5-10.587V123h33.269
		c5.841,0,10.587-4.642,10.587-10.5c0-5.841-4.729-10.5-10.587-10.5H123V68.267c0-5.841-4.642-10.587-10.5-10.587
		c-5.841,0-10.5,4.747-10.5,10.587V102H68.04c-5.841,0-10.587,4.659-10.587,10.5C57.453,118.358,62.182,123,68.04,123z"/>
	<path style="fill:#ffffff;" d="M150.852,241.495c-4.129-4.111-10.834-4.111-14.981,0l-23.707,23.7l-23.707-23.7
		c-4.147-4.129-10.852-4.129-14.981,0c-4.129,4.147-4.129,10.852,0,14.964l23.714,23.707l-23.714,23.707
		c-4.129,4.129-4.129,10.834,0,14.964c2.065,2.065,4.764,3.106,7.482,3.106c2.7,0,5.417-1.041,7.499-3.106l23.707-23.7l23.707,23.7
		c2.065,2.065,4.782,3.106,7.482,3.106c2.7,0,5.417-1.041,7.499-3.106c4.129-4.147,4.129-10.852,0-14.964l-23.714-23.707
		l23.714-23.707C154.981,252.329,154.981,245.624,150.852,241.495z"/>
	<path style="fill:#ffffff;" d="M234.563,123h88.229c5.858,0,10.587-4.642,10.587-10.5c0-5.841-4.729-10.5-10.587-10.5h-88.229
		c-5.841,0-10.587,4.659-10.587,10.5C223.975,118.358,228.704,123,234.563,123z"/>
	<path style="fill:#ffffff;" d="M322.791,251h-88.229c-5.841,0-10.587,4.659-10.587,10.5s4.729,10.5,10.587,10.5h88.229
		c5.858,0,10.587-4.642,10.587-10.5C333.379,255.659,328.65,251,322.791,251z"/>
	<path style="fill:#ffffff;" d="M322.791,285h-88.229c-5.841,0-10.587,5.159-10.587,11c0,5.858,4.729,11,10.587,11h88.229
		c5.858,0,10.587-5.159,10.587-11C333.379,290.159,328.65,285,322.791,285z"/>
</g>
<g>
</g>
<g>
</g>
<g>
</g>
<g>
</g>
<g>
</g>
<g>
</g>
<g>
</g>
<g>
</g>
<g>
</g>
<g>
</g>
<g>
</g>
<g>
</g>
<g>
</g>
<g>
</g>
<g>
</g>
</svg>
