<?xml version="1.0" encoding="utf-8"?>
<!-- Generator: Adobe Illustrator 16.0.0, SVG Export Plug-In . SVG Version: 6.00 Build 0)  -->
<!DOCTYPE svg PUBLIC "-//W3C//DTD SVG 1.1 Tiny//EN" "http://www.w3.org/Graphics/SVG/1.1/DTD/svg11-tiny.dtd">
<svg version="1.1" baseProfile="tiny" id="Layer_1" xmlns="http://www.w3.org/2000/svg" xmlns:xlink="http://www.w3.org/1999/xlink"
	 x="0px" y="0px" width="24px" height="24px" fill="#ffffff" viewBox="0 0 24 24" xml:space="preserve">
<path d="M22.1,10.944c-0.675,0-1.575,0.399-2.487,1.09l-0.733-3.746c0.924-0.929,4.51-4.651,4.517-6.459
	c0.001-0.408-0.166-0.661-0.306-0.802c-0.138-0.137-0.385-0.301-0.785-0.301c-1.84,0-5.759,3.798-6.673,4.71l-3.197-0.564
	c0.901-1.309,1.121-2.471,0.543-3.052c-0.147-0.146-0.417-0.322-0.867-0.322c-0.929,0-2.298,0.771-3.489,1.962
	c-0.2,0.2-0.386,0.403-0.557,0.606c-0.69-0.207-2.486-0.697-3.209-0.499c-0.776,0.212-2.144,1.709-2.41,2.007
	C2.361,5.669,2.326,5.798,2.353,5.923c0.026,0.124,0.109,0.229,0.225,0.281l8.562,3.93l-5.052,6.148
	c-0.062,0.063-0.122,0.126-0.181,0.189c-0.734-0.436-2.551-1.423-3.376-1.248c-0.643,0.129-1.511,1.278-1.854,1.766
	c-0.068,0.098-0.09,0.22-0.059,0.335c0.03,0.115,0.111,0.21,0.22,0.259l3.546,1.623l0.992,0.992l1.491,2.86
	c0.053,0.102,0.146,0.176,0.258,0.203c0.032,0.009,0.064,0.013,0.097,0.013c0.08,0,0.159-0.024,0.227-0.071
	c0.466-0.32,1.56-1.133,1.657-1.754c0.146-0.905-1.024-2.654-1.585-3.43l6.611-5.197l4.554,9.032
	c0.057,0.112,0.162,0.19,0.284,0.214c0.124,0.021,0.249-0.014,0.342-0.098c0.265-0.24,1.595-1.475,1.775-2.182
	c0.205-0.801-0.344-2.644-0.596-3.418c0.291-0.229,0.571-0.479,0.837-0.746c0.761-0.76,1.36-1.598,1.689-2.359
	c0.379-0.877,0.361-1.587-0.05-1.997C22.82,11.121,22.551,10.944,22.1,10.944z M22.283,12.948c-0.29,0.672-0.829,1.421-1.521,2.111
	c-0.309,0.311-0.638,0.595-0.979,0.845c-0.141,0.104-0.198,0.287-0.141,0.452c0.355,1.036,0.799,2.725,0.668,3.234
	c-0.065,0.256-0.594,0.872-1.153,1.424l-4.471-8.868c-0.02-0.039-0.045-0.074-0.076-0.104l-0.095-0.094
	c-0.143-0.144-0.371-0.155-0.528-0.03l-7.045,5.541c-0.061,0.062-0.127,0.115-0.196,0.161c-0.09,0.063-0.151,0.158-0.169,0.267
	s0.01,0.22,0.076,0.307c0.859,1.129,1.739,2.646,1.662,3.127c-0.039,0.159-0.457,0.57-0.955,0.956l-1.305-2.502
	c-0.019-0.036-0.043-0.069-0.071-0.099l-1.087-1.087c-0.034-0.033-0.073-0.061-0.117-0.08L1.62,17.062
	c0.439-0.559,0.907-1.017,1.15-1.061c0.643,0,2.184,0.813,3.004,1.325c0.169,0.106,0.395,0.07,0.523-0.088
	c0.107-0.133,0.23-0.263,0.384-0.422l5.404-6.576c0.079-0.096,0.109-0.223,0.081-0.344c-0.027-0.121-0.11-0.222-0.223-0.273
	l-8.53-3.915c0.585-0.607,1.322-1.279,1.651-1.369c0.039-0.01,0.113-0.022,0.245-0.022c0.922,0,2.75,0.586,2.769,0.592
	c0.159,0.049,0.33-0.001,0.436-0.131c0.201-0.251,0.425-0.504,0.673-0.752c1.186-1.187,2.347-1.727,2.923-1.727
	c0.098,0,0.229,0.015,0.302,0.087c0.238,0.24,0.024,1.248-0.999,2.516c-0.089,0.109-0.112,0.259-0.063,0.392
	c0.05,0.132,0.166,0.229,0.306,0.253l4.043,0.715c0.124,0.024,0.262-0.02,0.354-0.112c1.762-1.787,5.018-4.622,6.252-4.622
	c0.152,0,0.202,0.051,0.219,0.067c0.031,0.03,0.072,0.088,0.071,0.232c-0.004,1.224-2.73,4.368-4.448,6.063
	C18.034,8,18.016,8.179,18.071,8.328l0.884,4.516c0.027,0.141,0.128,0.255,0.264,0.302c0.135,0.045,0.286,0.016,0.393-0.078
	c0.914-0.804,1.891-1.322,2.488-1.322c0.098,0,0.229,0.015,0.302,0.089C22.519,11.95,22.558,12.313,22.283,12.948z"/>
</svg>
