<?xml version="1.0" ?><svg with="64" height="64" fill="#fa0202" viewBox="0 0 64 64" xmlns="http://www.w3.org/2000/svg"><defs><style>.cls-1{fill:#ffffff;}</style></defs><title/><g data-name="14" id="_14"><path class="cls-1" d="M33.71,36.29,28,30.58V20c0-.34-.01-.68-.04-1v-.11A12.306,12.306,0,0,0,22.5,9.13a1.044,1.044,0,0,0-1,0,12.306,12.306,0,0,0-5.46,9.76V19c-.03.32-.04.66-.04,1V30.58l-5.71,5.71A1.033,1.033,0,0,0,10,37v3a.983.983,0,0,0,.42.81A.939.939,0,0,0,11,41a1.185,1.185,0,0,0,.32-.05L16,39.39V42a1,1,0,0,0,1,1h1.5v2a1,1,0,0,0,1,1h5a1,1,0,0,0,1-1V43H27a1,1,0,0,0,1-1V39.39l4.68,1.56A1.185,1.185,0,0,0,33,41a.939.939,0,0,0,.58-.19A.983.983,0,0,0,34,40V37A1.033,1.033,0,0,0,33.71,36.29ZM16,37.28l-4,1.33v-1.2l4-4Zm6-26.07A10.56,10.56,0,0,1,25.85,18h-7.7A10.388,10.388,0,0,1,22,11.21ZM23.5,44h-3V43h3ZM26,41H18V20h8Zm6-2.39-4-1.33V33.41l4,4Z"/><path class="cls-1" d="M23.5,26.5h-3a1,1,0,0,1-1-1v-3a1,1,0,0,1,1-1h3a1,1,0,0,1,1,1v3A1,1,0,0,1,23.5,26.5Zm-2-2h1v-1h-1Z"/><path class="cls-1" d="M23.5,29.5h-3a1,1,0,0,1,0-2h3a1,1,0,0,1,0,2Z"/><path class="cls-1" d="M23.5,32.5h-3a1,1,0,0,1,0-2h3a1,1,0,0,1,0,2Z"/><path class="cls-1" d="M22,40a1,1,0,0,1-1-1V34.5a1,1,0,0,1,2,0V39A1,1,0,0,1,22,40Z"/><path class="cls-1" d="M53,53H50V37a1,1,0,0,0-1-1H45a1,1,0,0,0-1,1V53H42V40a1,1,0,0,0-1-1H37a1,1,0,0,0-1,1V53H33a1,1,0,0,0,0,2H53a1,1,0,0,0,0-2ZM38,53V41h2V53Zm10,0H46V38h2Z"/><path class="cls-1" d="M39,14a1,1,0,0,1-1-1V11H27a1,1,0,0,1,0-2H39a1,1,0,0,1,1,1v3A1,1,0,0,1,39,14Z"/><path class="cls-1" d="M47,23a1,1,0,0,1-1-1V20H31a1,1,0,0,1,0-2H47a1,1,0,0,1,1,1v3A1,1,0,0,1,47,23Z"/><path class="cls-1" d="M39.02,17a1,1,0,0,1-.01-2h.01a1,1,0,0,1,0,2Z"/><path class="cls-1" d="M39.02,23a1,1,0,0,1-.01-2h.01a1,1,0,0,1,0,2Z"/><path class="cls-1" d="M47.02,32a1,1,0,0,1-.01-2h.01a1,1,0,1,1,0,2Z"/><path class="cls-1" d="M47.02,35a1,1,0,0,1-.01-2h.01a1,1,0,1,1,0,2Z"/><path class="cls-1" d="M47.02,29a1,1,0,0,1-.01-2h.01a1,1,0,1,1,0,2Z"/><path class="cls-1" d="M47.02,26a1,1,0,0,1-.01-2h.01a1,1,0,1,1,0,2Z"/><path class="cls-1" d="M39.02,26a1,1,0,0,1-.01-2h.01a1,1,0,1,1,0,2Z"/><path class="cls-1" d="M39.02,29a1,1,0,0,1-.01-2h.01a1,1,0,1,1,0,2Z"/><path class="cls-1" d="M39.02,32a1,1,0,0,1-.01-2h.01a1,1,0,1,1,0,2Z"/><path class="cls-1" d="M39.02,35a1,1,0,0,1-.01-2h.01a1,1,0,1,1,0,2Z"/><path class="cls-1" d="M39.02,38a1,1,0,0,1-.01-2h.01a1,1,0,1,1,0,2Z"/><path class="cls-1" d="M22,55a1,1,0,0,1-.5-.132A6.731,6.731,0,0,1,18.5,49a1,1,0,0,1,1-1h5a1,1,0,0,1,1,1,6.731,6.731,0,0,1-3,5.868A1,1,0,0,1,22,55Zm-1.419-5A4.813,4.813,0,0,0,22,52.739,4.805,4.805,0,0,0,23.419,50Z"/></g></svg>