<?xml version="1.0" encoding="iso-8859-1"?>
<!-- Generator: Adobe Illustrator 19.0.0, SVG Export Plug-In . SVG Version: 6.00 Build 0)  -->
<svg version="1.1" id="Capa_1" xmlns="http://www.w3.org/2000/svg" fill="#ffffff" xmlns:xlink="http://www.w3.org/1999/xlink" x="0px" y="0px"
	 viewBox="0 0 451.36 451.36" style="enable-background:new 0 0 451.36 451.36;" xml:space="preserve">
<g>
	<path d="M438.884,27.973c-0.291-7.576-5.536-13.987-12.821-16.026s-14.861,0.874-19.232,7.285
		c-0.291,0.583-36.423,52.741-80.714,52.741c-38.172,0-74.304-47.205-83.628-60.317c-0.291-0.874-0.583-1.748-1.166-2.622
		C238.117,3.497,232.29,0,225.879,0h-0.874c-6.411,0-12.238,3.497-15.444,9.033c-0.583,0.874-0.874,1.748-1.166,2.622
		c-9.324,13.112-45.748,60.317-83.628,60.317c-44.582,0-80.423-50.701-80.714-50.993c-4.371-6.119-11.947-8.742-19.232-6.993
		c-7.285,2.04-12.238,8.45-12.821,16.026c0.291,9.324-10.781,229.031,63.523,324.315c73.43,93.827,142.78,97.032,150.356,97.032
		c0,0,0.291,0,0.583,0c1.748,0,3.205-0.874,4.954-1.166c19.523-1.748,80.423-15.152,144.528-97.324
		C450.539,257.587,439.466,37.298,438.884,27.973z M401.295,149.773c-7.576,84.211-25.642,146.859-52.741,181.535
		c-64.105,81.88-122.383,83.628-122.966,83.628c-0.874,0-1.748,0-2.914,0.291c-13.112-1.457-64.105-11.947-119.76-83.046
		C55.126,270.699,47.55,141.323,46.967,74.304c19.232,16.318,46.331,32.635,78.383,32.635c26.225,0,53.324-12.821,80.132-37.88
		c8.159-7.576,14.861-15.152,20.689-22.145c5.536,6.702,12.53,14.569,20.689,22.145c26.808,25.059,53.615,37.88,80.132,37.88
		c32.053,0,59.152-16.609,78.383-33.51C404.5,94.118,403.626,120.926,401.295,149.773z"/>
</g>
<g>
</g>
<g>
</g>
<g>
</g>
<g>
</g>
<g>
</g>
<g>
</g>
<g>
</g>
<g>
</g>
<g>
</g>
<g>
</g>
<g>
</g>
<g>
</g>
<g>
</g>
<g>
</g>
<g>
</g>
</svg>
