<?xml version="1.0" ?><svg fill="#ffffff" xmlns="http://www.w3.org/2000/svg" xmlns:xlink="http://www.w3.org/1999/xlink" version="1.1" viewBox="0 0 512 512" style="enable-background:new 0 0 512 512;" xml:space="preserve"><g id="_x33_1_x2C__Electric_Motor_x2C__Dynamo_x2C__Electrical_Component_x2C__Rpm_x2C__Equipment_x2C__Transportation_x2C__Electronics_x2C__Machine_x2C__Motor"><g><path d="M471.185,181c-6.4,0-22.277,0-40.185,0c0-22.056-17.944-40-40-40h-9.197l-37.121-64.961C342.902,72.923,339.588,71,336,71    h-20V21h20c5.523,0,10-4.478,10-10s-4.477-10-10-10h-60c-5.523,0-10,4.477-10,10s4.477,10,10,10h20v50h-80V21h20    c5.523,0,10-4.478,10-10s-4.477-10-10-10h-60c-5.523,0-10,4.477-10,10s4.477,10,10,10h20v50h-20c-3.588,0-6.902,1.923-8.683,5.039    L130.197,141H121c-22.056,0-40,17.944-40,40H51c-5.523,0-10,4.477-10,10v40H11c-5.523,0-10,4.477-10,10v60c0,5.522,4.477,10,10,10    h30v40c0,5.522,4.477,10,10,10h30c0,15.946,9.382,29.737,22.913,36.158l-42.128,99.958C59.001,503.723,63.873,511,71,511h70    c3.148,0,6.111-1.481,8-4l27-36h160l27,36c1.889,2.519,4.853,4,8,4h70c7.17,0,11.982-7.317,9.215-13.884l-42.128-99.958    C421.618,390.737,431,376.946,431,361h40c22.056,0,40-17.944,40-40V221C511,199.006,493.157,181.101,471.185,181z M491,241v20h-60    v-20H491z M431,281h60v20h-60V281z M471,201c11.028,0,20,8.972,20,20h-60v-20H471z M181.803,91h148.394l28.571,50H153.232    L181.803,91z M61,341c0-39.462,0-92.19,0-140h20v140H61z M376,491l-27-36c-1.889-2.519-4.853-4-8-4H171c-3.148,0-6.111,1.481-8,4    l-27,36H86.066l37.931-90h264.006l37.931,90H376z M391,381H121c-11.028,0-20-8.972-20-20h50c5.523,0,10-4.478,10-10    s-4.477-10-10-10h-50v-20h50c5.523,0,10-4.478,10-10s-4.477-10-10-10h-50v-20h50c5.523,0,10-4.478,10-10s-4.477-10-10-10h-50v-20    h50c5.523,0,10-4.477,10-10s-4.477-10-10-10h-50v-20h50c5.523,0,10-4.477,10-10s-4.477-10-10-10h-50c0-11.028,8.972-20,20-20    c0.158,0,270.152,0,270,0c11.028,0,20,8.972,20,20c-21.619,0-42.307,0-50,0c-5.523,0-10,4.477-10,10s4.477,10,10,10h50v20h-50    c-5.523,0-10,4.477-10,10s4.477,10,10,10h50v20h-50c-5.523,0-10,4.478-10,10s4.477,10,10,10h50v20h-50c-5.523,0-10,4.478-10,10    s4.477,10,10,10h50v20h-50c-5.523,0-10,4.478-10,10s4.477,10,10,10h50C411,372.028,402.028,381,391,381z M471,341h-40v-20h60    C491,332.028,482.028,341,471,341z"/><path d="M321,231h-48.107l17.122-35.673C293.198,188.696,288.355,181,281,181h-50c-3.952,0-7.533,2.327-9.138,5.939l-40,90    C178.926,283.546,183.771,291,191,291h36.743l-16.358,57.253c-1.276,4.467,0.692,9.224,4.751,11.484    c4.046,2.252,9.13,1.438,12.264-2.011l100-110C334.234,241.309,329.655,231,321,231z"/></g></g><g id="Layer_1"/></svg>