<?xml version="1.0" ?><svg with="64" height="64" fill="#fa0202" viewBox="0 0 64 64" xmlns="http://www.w3.org/2000/svg"><defs><style>.cls-1{fill:#fcc667;}.cls-2{fill:#6cc5ef;}.cls-3{fill:#767689;}.cls-4{fill:#f9f9f9;}.cls-5{fill:#3db3ea;}.cls-6{fill:#fbae36;}.cls-7{fill:#16244d;}</style></defs><g id="Rocket"><path class="cls-1" d="M11.51,39,25.22,25.33,38.46,38.56,24.74,52.28Z" id="rect1779-7-4"/><path class="cls-2" d="M53,4.54a9.27,9.27,0,0,0-11.43,6.51l-5,18.74,18.07,4.84,5-18.73A9.27,9.27,0,0,0,53,4.54Z" id="path2180-1"/><path class="cls-3" d="M12.88,37.68,4,34l9.22-9.22a3.47,3.47,0,0,1,4.28-.5l5.4,3.36Z" id="path1750-4-4-2"/><path class="cls-3" d="M26.11,50.91l3.66,8.88L39,50.57a3.47,3.47,0,0,0,.49-4.28l-3.35-5.4Z" id="path1804-5-8"/><path class="cls-4" d="M27.17,36.61a1.71,1.71,0,0,0-2.42,0L12.3,49.06a1.71,1.71,0,0,0,2.42,2.42L27.17,39A1.71,1.71,0,0,0,27.17,36.61Z" id="rect1809-2-8"/><path class="cls-4" d="M51.35,10.83a3.26,3.26,0,0,1,2.31,4l-2.51,9.37a3.26,3.26,0,0,1-6.3-1.68l2.52-9.38a3.24,3.24,0,0,1,4-2.3Z" id="rect1824-4-9"/><path class="cls-5" d="M51.05,4.23a9.26,9.26,0,0,1,4.77,10.63l-5,18.74,3.87,1,5-18.73A9.36,9.36,0,0,0,51.05,4.23Z" id="path8993"/><path class="cls-6" d="M20.77,48.3,34.48,34.59l4,4L24.74,52.28Z" id="path8998"/><path class="cls-7" d="M53.3,3.58A10.32,10.32,0,0,0,40.64,10.8l-5,18.73a1,1,0,0,0,.71,1.23L54.4,35.6l.26,0a1,1,0,0,0,.5-.13,1,1,0,0,0,.47-.61l5-18.73a10.16,10.16,0,0,0-1-7.79A10.33,10.33,0,0,0,53.3,3.58Zm5.42,12.06L54,33.41,37.81,29.08l4.76-17.77A8.39,8.39,0,0,1,57.88,9.38,8.16,8.16,0,0,1,58.72,15.64Z"/><path class="cls-7" d="M3,34.21a1,1,0,0,0,.6.73L11.11,38l-.31.31a1,1,0,0,0-.29.7,1,1,0,0,0,.29.71l4.7,4.7-3.9,3.91a2.65,2.65,0,0,0-.8,1.91,2.69,2.69,0,0,0,.79,1.92,2.74,2.74,0,0,0,1.92.8,2.7,2.7,0,0,0,1.92-.8l3.91-3.91L24,53a1,1,0,0,0,.71.3,1,1,0,0,0,.71-.3l.31-.3,3.08,7.49a1,1,0,0,0,.73.6l.2,0a1,1,0,0,0,.7-.3l9.22-9.22a4.44,4.44,0,0,0,.64-5.51L37.4,41l1.76-1.76a1,1,0,0,0,0-1.42L25.93,24.62a1,1,0,0,0-1.41,0l-1.77,1.77L18,23.46a4.45,4.45,0,0,0-5.52.63L3.29,33.31A1,1,0,0,0,3,34.21ZM14,50.78a.72.72,0,0,1-1,0,.71.71,0,0,1-.21-.51.69.69,0,0,1,.21-.5L25.46,37.32a.71.71,0,0,1,1,0h0a.7.7,0,0,1,0,1Zm24.62-4a2.47,2.47,0,0,1-.35,3L30.12,58l-2.83-6.88,8.65-8.65ZM25.22,26.74,37,38.56,25.4,50.2h0l-.65.65-4-4,7.13-7.13a2.7,2.7,0,0,0,0-3.84,2.78,2.78,0,0,0-3.83,0L16.92,43l-4-4ZM13.93,25.5a2.46,2.46,0,0,1,3-.35l4.33,2.69L12.64,36.5,5.77,33.66Z"/><path class="cls-7" d="M51.61,9.87a4.26,4.26,0,0,0-5.21,3l-2.51,9.37a4.19,4.19,0,0,0,.42,3.23A4.31,4.31,0,0,0,48,27.61,4.19,4.19,0,0,0,50.13,27a4.24,4.24,0,0,0,2-2.59l2.51-9.37a4.24,4.24,0,0,0-3-5.21Zm1.08,4.69-2.51,9.37a2.28,2.28,0,0,1-1,1.38,2.22,2.22,0,0,1-1.71.22,2.24,2.24,0,0,1-1.6-2.77l2.51-9.37a2.26,2.26,0,0,1,2.18-1.67,2.32,2.32,0,0,1,.58.08,2.24,2.24,0,0,1,1.6,2.76Z"/><path class="cls-7" d="M50,15.75a1,1,0,0,0-1.23.7l-1,3.9a1,1,0,0,0,.7,1.23l.26,0a1,1,0,0,0,1-.74l1-3.9A1,1,0,0,0,50,15.75Z"/></g></svg>